<svg width="202" height="34" viewBox="0 0 202 34" fill="none" xmlns="http://www.w3.org/2000/svg">
<path fill-rule="evenodd" clip-rule="evenodd" d="M8.84071 8.67436C11.0535 4.80414 15.2227 2.19049 20 2.19049C25.9973 2.19049 31.027 6.29116 32.4457 11.858C36.7195 12.4984 40 16.1475 40 20.6032C40 25.5101 36.018 29.4921 31.1111 29.4921C30.5851 29.4921 30.1587 29.0657 30.1587 28.5397C30.1587 28.0137 30.5851 27.5873 31.1111 27.5873C34.9661 27.5873 38.0952 24.4582 38.0952 20.6032C38.0952 16.9228 35.2383 13.9321 31.6009 13.6803L30.8733 13.6299L30.7323 12.9143C29.7391 7.87564 25.3138 4.09525 20 4.09525C15.7821 4.09525 12.116 6.48796 10.2891 9.99551L10.0531 10.4486L9.54513 10.5026C5.24758 10.9595 1.90476 14.6022 1.90476 19.0159C1.90476 23.7439 5.74821 27.5873 10.4762 27.5873C11.0022 27.5873 11.4286 28.0137 11.4286 28.5397C11.4286 29.0657 11.0022 29.4921 10.4762 29.4921C4.69624 29.4921 0 24.7958 0 19.0159C0 13.7934 3.82744 9.45459 8.84071 8.67436Z" fill="#1A1919"/>
<rect x="15.3078" y="27.2231" width="6.43921" height="6.43921" transform="rotate(-45 15.3078 27.2231)" stroke="#F48220" stroke-width="2"/>
<rect x="22.3404" y="20.1905" width="6.43921" height="6.43921" transform="rotate(-45 22.3404 20.1905)" stroke="#F48220" stroke-width="2"/>
<rect x="8.41421" y="20.1905" width="6.43921" height="6.43921" transform="rotate(-45 8.41421 20.1905)" stroke="#F48220" stroke-width="2"/>
<rect x="15.3078" y="13.1581" width="6.43921" height="6.43921" transform="rotate(-45 15.3078 13.1581)" stroke="#F48220" stroke-width="2"/>
<rect x="13.3371" y="20.1905" width="9.20097" height="9.20097" transform="rotate(-45 13.3371 20.1905)" stroke="#B01111" stroke-width="2"/>
<path d="M51.68 22V8H57.4C60.74 8 62.76 9.98 62.76 12.84V12.88C62.76 16.12 60.24 17.8 57.1 17.8H54.76V22H51.68ZM54.76 15.06H57.2C58.74 15.06 59.64 14.14 59.64 12.94V12.9C59.64 11.52 58.68 10.78 57.14 10.78H54.76V15.06ZM69.8817 22.24C66.5617 22.24 64.1017 19.78 64.1017 16.7V16.66C64.1017 13.58 66.5817 11.08 69.9217 11.08C73.2417 11.08 75.7017 13.54 75.7017 16.62V16.66C75.7017 19.74 73.2217 22.24 69.8817 22.24ZM69.9217 19.62C71.6617 19.62 72.7017 18.28 72.7017 16.7V16.66C72.7017 15.08 71.5617 13.7 69.8817 13.7C68.1417 13.7 67.1017 15.04 67.1017 16.62V16.66C67.1017 18.24 68.2417 19.62 69.9217 19.62ZM77.903 22V11.28H80.943V13.44C81.563 11.96 82.563 11 84.363 11.08V14.26H84.203C82.183 14.26 80.943 15.48 80.943 18.04V22H77.903ZM89.8823 22.18C88.0223 22.18 86.7623 21.44 86.7623 18.96V13.88H85.4823V11.28H86.7623V8.54H89.8023V11.28H92.3223V13.88H89.8023V18.46C89.8023 19.16 90.1023 19.5 90.7823 19.5C91.3423 19.5 91.8423 19.36 92.2823 19.12V21.56C91.6423 21.94 90.9023 22.18 89.8823 22.18ZM97.6031 22.2C95.5831 22.2 93.9231 21.04 93.9231 18.92V18.88C93.9231 16.54 95.7031 15.46 98.2431 15.46C99.3231 15.46 100.103 15.64 100.863 15.9V15.72C100.863 14.46 100.083 13.76 98.5631 13.76C97.4031 13.76 96.5831 13.98 95.6031 14.34L94.8431 12.02C96.0231 11.5 97.1831 11.16 99.0031 11.16C100.663 11.16 101.863 11.6 102.623 12.36C103.423 13.16 103.783 14.34 103.783 15.78V22H100.843V20.84C100.103 21.66 99.0831 22.2 97.6031 22.2ZM98.5231 20.1C99.9431 20.1 100.903 19.32 100.903 18.22V17.68C100.383 17.44 99.7031 17.28 98.9631 17.28C97.6631 17.28 96.8631 17.8 96.8631 18.76V18.8C96.8631 19.62 97.5431 20.1 98.5231 20.1ZM106.539 22V7.4H109.579V22H106.539ZM123.73 22.2C121.61 22.2 119.47 21.46 117.79 19.96L119.61 17.78C120.87 18.82 122.19 19.48 123.79 19.48C125.05 19.48 125.81 18.98 125.81 18.16V18.12C125.81 17.34 125.33 16.94 122.99 16.34C120.17 15.62 118.35 14.84 118.35 12.06V12.02C118.35 9.48 120.39 7.8 123.25 7.8C125.29 7.8 127.03 8.44 128.45 9.58L126.85 11.9C125.61 11.04 124.39 10.52 123.21 10.52C122.03 10.52 121.41 11.06 121.41 11.74V11.78C121.41 12.7 122.01 13 124.43 13.62C127.27 14.36 128.87 15.38 128.87 17.82V17.86C128.87 20.64 126.75 22.2 123.73 22.2ZM136.303 22.24C133.083 22.24 130.703 19.98 130.703 16.7V16.66C130.703 13.6 132.883 11.08 136.003 11.08C139.583 11.08 141.223 13.86 141.223 16.9C141.223 17.14 141.203 17.42 141.183 17.7H133.723C134.023 19.08 134.983 19.8 136.343 19.8C137.363 19.8 138.103 19.48 138.943 18.7L140.683 20.24C139.683 21.48 138.243 22.24 136.303 22.24ZM133.683 15.8H138.263C138.083 14.44 137.283 13.52 136.003 13.52C134.743 13.52 133.923 14.42 133.683 15.8ZM143.489 22V11.28H146.529V13.44C147.149 11.96 148.149 11 149.949 11.08V14.26H149.789C147.769 14.26 146.529 15.48 146.529 18.04V22H143.489ZM155.108 22.08L150.888 11.28H154.108L156.508 18.46L158.928 11.28H162.088L157.868 22.08H155.108ZM163.9 10.1V7.4H167.1V10.1H163.9ZM163.98 22V11.28H167.02V22H163.98ZM174.936 22.24C171.716 22.24 169.356 19.76 169.356 16.7V16.66C169.356 13.6 171.696 11.08 174.976 11.08C176.996 11.08 178.256 11.76 179.256 12.88L177.396 14.88C176.716 14.16 176.036 13.7 174.956 13.7C173.436 13.7 172.356 15.04 172.356 16.62V16.66C172.356 18.3 173.416 19.62 175.076 19.62C176.096 19.62 176.796 19.18 177.536 18.48L179.316 20.28C178.276 21.42 177.076 22.24 174.936 22.24ZM186.088 22.24C182.868 22.24 180.488 19.98 180.488 16.7V16.66C180.488 13.6 182.668 11.08 185.788 11.08C189.368 11.08 191.008 13.86 191.008 16.9C191.008 17.14 190.988 17.42 190.968 17.7H183.508C183.808 19.08 184.768 19.8 186.128 19.8C187.148 19.8 187.888 19.48 188.728 18.7L190.468 20.24C189.468 21.48 188.028 22.24 186.088 22.24ZM183.468 15.8H188.048C187.868 14.44 187.068 13.52 185.788 13.52C184.528 13.52 183.708 14.42 183.468 15.8ZM197.034 22.2C195.534 22.2 193.854 21.7 192.434 20.58L193.734 18.58C194.894 19.42 196.114 19.86 197.114 19.86C197.994 19.86 198.394 19.54 198.394 19.06V19.02C198.394 18.36 197.354 18.14 196.174 17.78C194.674 17.34 192.974 16.64 192.974 14.56V14.52C192.974 12.34 194.734 11.12 196.894 11.12C198.254 11.12 199.734 11.58 200.894 12.36L199.734 14.46C198.674 13.84 197.614 13.46 196.834 13.46C196.094 13.46 195.714 13.78 195.714 14.2V14.24C195.714 14.84 196.734 15.12 197.894 15.52C199.394 16.02 201.134 16.74 201.134 18.7V18.74C201.134 21.12 199.354 22.2 197.034 22.2Z" fill="#1A1919"/>
</svg>
