<svg width="40" height="30" viewBox="0 0 40 30" fill="none" xmlns="http://www.w3.org/2000/svg">
<path fill-rule="evenodd" clip-rule="evenodd" d="M8.8407 6.89946C11.0534 3.02925 15.2227 0.415588 20 0.415588C25.9972 0.415588 31.027 4.51626 32.4457 10.0831C36.7195 10.7235 40 14.3725 40 18.8282C40 23.7352 36.018 27.7172 31.1111 27.7172C30.5851 27.7172 30.1588 27.2908 30.1588 26.7648C30.1588 26.2388 30.5851 25.8124 31.1111 25.8124C34.9661 25.8124 38.0952 22.6833 38.0952 18.8282C38.0952 15.148 35.2383 12.1572 31.6009 11.9054L30.8733 11.855L30.7323 11.1395C29.7391 6.10074 25.3138 2.32035 20 2.32035C15.7821 2.32035 12.116 4.71305 10.2891 8.22061L10.0531 8.67367L9.54514 8.72767C5.24758 9.18463 1.90476 12.8273 1.90476 17.241C1.90476 21.969 5.74821 25.8124 10.4762 25.8124C11.0022 25.8124 11.4286 26.2388 11.4286 26.7648C11.4286 27.2908 11.0022 27.7172 10.4762 27.7172C4.69624 27.7172 0 23.0209 0 17.241C0 12.0185 3.82744 7.67969 8.8407 6.89946Z" fill="#1A1919"/>
<path fill-rule="evenodd" clip-rule="evenodd" d="M13.1188 13.4476C14.69 17.9436 17.0922 22.1087 20.2034 25.7239C23.3147 22.1087 25.7169 17.9436 27.2881 13.4476C22.607 12.5603 17.8001 12.5603 13.1188 13.4476ZM11.1412 11.2062C17.1054 9.84184 23.3015 9.84184 29.2658 11.2061L30.6299 11.5182L30.2182 12.8555C28.4188 18.6995 25.3232 24.0681 21.1561 28.5578L20.2034 29.5842L19.251 28.5578C15.0838 24.0681 11.9882 18.6995 10.1889 12.8555L9.77716 11.5182L11.1412 11.2062Z" fill="#F48220"/>
<path d="M20.0698 18.1998C21.1057 18.1998 21.9454 17.3881 21.9454 16.3867C21.9454 15.3855 21.1057 14.5738 20.0698 14.5738C19.034 14.5738 18.1943 15.3855 18.1943 16.3867C18.1943 17.3881 19.034 18.1998 20.0698 18.1998Z" fill="#A92101"/>
<path d="M21.197 17.0761C21.197 16.4547 20.693 15.9507 20.0716 15.9507C19.4501 15.9507 18.9463 16.4547 18.9463 17.0761V19.952C18.9463 20.5734 19.4501 21.0772 20.0716 21.0772C20.693 21.0772 21.197 20.5734 21.197 19.952V17.0761Z" fill="#A92101"/>
</svg>
