<svg width="40" height="30" viewBox="0 0 40 30" fill="none" xmlns="http://www.w3.org/2000/svg">
<path fill-rule="evenodd" clip-rule="evenodd" d="M8.84071 6.83305C11.0535 2.96283 15.2227 0.349182 20 0.349182C25.9973 0.349182 31.027 4.44985 32.4457 10.0167C36.7195 10.6571 40 14.3062 40 18.7619C40 23.6688 36.018 27.6508 31.1111 27.6508C30.5851 27.6508 30.1587 27.2244 30.1587 26.6984C30.1587 26.1724 30.5851 25.746 31.1111 25.746C34.9661 25.746 38.0952 22.6168 38.0952 18.7619C38.0952 15.0815 35.2383 12.0908 31.6009 11.839L30.8733 11.7886L30.7323 11.073C29.7391 6.03433 25.3138 2.25394 20 2.25394C15.7821 2.25394 12.116 4.64665 10.2891 8.1542L10.0531 8.6073L9.54513 8.66131C5.24758 9.11819 1.90476 12.7609 1.90476 17.1746C1.90476 21.9026 5.74821 25.746 10.4762 25.746C11.0022 25.746 11.4286 26.1724 11.4286 26.6984C11.4286 27.2244 11.0022 27.6508 10.4762 27.6508C4.69624 27.6508 0 22.9545 0 17.1746C0 11.9521 3.82744 7.61328 8.84071 6.83305Z" fill="#1A1919"/>
<path d="M25.0631 15.9266L19.4121 10.0989L10.7883 18.8481L19.2642 27.5926L24.653 22.2832" stroke="#F48220" stroke-width="1.86529" stroke-linejoin="round"/>
<path d="M26.0911 23.9294L28.7753 21.1837L26.0911 18.4375" stroke="#9A0000" stroke-width="1.86529" stroke-linejoin="round"/>
<path d="M23.5077 18.9605L19.3206 23.2973L14.9539 18.8298L19.3079 14.3752L23.5077 18.9605Z" stroke="#9A0000" stroke-width="1.87"/>
</svg>
