<svg width="40" height="30" viewBox="0 0 40 30" fill="none" xmlns="http://www.w3.org/2000/svg">
<path fill-rule="evenodd" clip-rule="evenodd" d="M8.84071 6.98387C11.0535 3.11365 15.2227 0.5 20 0.5C25.9973 0.5 31.027 4.60067 32.4457 10.1675C36.7195 10.8079 40 14.457 40 18.9127C40 23.8196 36.018 27.8016 31.1111 27.8016C30.5851 27.8016 30.1587 27.3752 30.1587 26.8492C30.1587 26.3232 30.5851 25.8968 31.1111 25.8968C34.9661 25.8968 38.0952 22.7677 38.0952 18.9127C38.0952 15.2323 35.2383 12.2416 31.6009 11.9898L30.8733 11.9394L30.7323 11.2239C29.7391 6.18515 25.3138 2.40476 20 2.40476C15.7821 2.40476 12.116 4.79747 10.2891 8.30502L10.0531 8.75812L9.54513 8.81212C5.24758 9.26901 1.90476 12.9117 1.90476 17.3254C1.90476 22.0534 5.74821 25.8968 10.4762 25.8968C11.0022 25.8968 11.4286 26.3232 11.4286 26.8492C11.4286 27.3752 11.0022 27.8016 10.4762 27.8016C4.69624 27.8016 0 23.1053 0 17.3254C0 12.1029 3.82744 7.7641 8.84071 6.98387Z" fill="black"/>
<path d="M17.5322 13.364H12.8283L11.2874 20.2044C13.5853 22.7921 16.5998 29.1069 20.1274 27.0448M17.5322 13.364L15.2614 16.9642C15.2614 17.4443 15.7155 18.3323 17.5322 18.0443L18.5054 16.9642L20.1274 16.2442L25.9667 22.0045M17.5322 13.364C18.5703 12.5 19.4786 12.524 19.803 12.644L25.5833 15.1641L27.5887 21.2845L25.9667 22.0045M25.9667 22.0045C26.183 22.9646 26.1613 24.7407 24.3447 24.1646M24.3447 24.1646L21.425 20.9245M24.3447 24.1646C24.3447 24.7407 22.8308 25.7247 22.3982 25.9647M19.4786 22.7246L22.3982 25.9647M22.3982 25.9647C21.1006 27.0512 20.3437 27.1374 20.1274 27.0448M17.5322 24.1646L20.1274 27.0448" stroke="#F48220" stroke-width="2" stroke-linecap="round" stroke-linejoin="round"/>
<path d="M10.0147 12.5831L8.4505 19.4722" stroke="#9A0000" stroke-width="2" stroke-linecap="round" stroke-linejoin="round"/>
<path d="M28.3706 14.1379L30.6259 20.8326" stroke="#9A0000" stroke-width="2" stroke-linecap="round" stroke-linejoin="round"/>
</svg>
