<svg width="40" height="30" viewBox="0 0 40 30" fill="none" xmlns="http://www.w3.org/2000/svg">
<path fill-rule="evenodd" clip-rule="evenodd" d="M8.84071 6.98387C11.0535 3.11365 15.2227 0.5 20 0.5C25.9973 0.5 31.027 4.60067 32.4457 10.1675C36.7195 10.8079 40 14.457 40 18.9127C40 23.8196 36.018 27.8016 31.1111 27.8016C30.5851 27.8016 30.1587 27.3752 30.1587 26.8492C30.1587 26.3232 30.5851 25.8968 31.1111 25.8968C34.9661 25.8968 38.0952 22.7677 38.0952 18.9127C38.0952 15.2323 35.2383 12.2416 31.6009 11.9898L30.8733 11.9394L30.7323 11.2239C29.7391 6.18515 25.3138 2.40476 20 2.40476C15.7821 2.40476 12.116 4.79747 10.2891 8.30502L10.0531 8.75812L9.54513 8.81212C5.24758 9.26901 1.90476 12.9117 1.90476 17.3254C1.90476 22.1187 5.33504 25.8968 10 25.8968C10.526 25.8968 10.9524 26.3232 10.9524 26.8492C10.9524 27.3752 10.526 27.8016 10 27.8016C4.15702 27.8016 0 23.04 0 17.3254C0 12.1029 3.82744 7.7641 8.84071 6.98387Z" fill="#1A1919"/>
<path d="M28 22.4851V9.97954C28 8.96205 27.1752 8.13721 26.1577 8.13721H13.9685C12.951 8.13721 12.1262 8.96205 12.1262 9.97954V23.1024C12.1262 24.1199 12.951 24.9447 13.9685 24.9447H22.3975" stroke="#F48220" stroke-width="1.84233"/>
<line x1="15.693" y1="12.8186" x2="22.6695" y2="12.8186" stroke="#9A0000" stroke-width="1.84233" stroke-linecap="round"/>
<line x1="15.693" y1="16.5536" x2="24.4332" y2="16.5536" stroke="#9A0000" stroke-width="1.84233" stroke-linecap="round"/>
<line x1="15.693" y1="20.2886" x2="20.0238" y2="20.2886" stroke="#9A0000" stroke-width="1.84233" stroke-linecap="round"/>
<g clip-path="url(#clip0_402_5411)">
<path d="M23.0424 26.7661C22.8645 26.5883 22.9572 26.6384 22.5283 26.5236C22.3337 26.4714 22.1626 26.3711 22.0079 26.251L21.0793 28.5276C20.9895 28.748 21.1573 28.9874 21.3951 28.9784L22.4734 28.9373L23.2151 29.7207C23.3788 29.8934 23.6662 29.8396 23.756 29.6192L24.8212 27.0074C24.5994 27.131 24.3532 27.2035 24.0986 27.2035C23.6995 27.2035 23.3246 27.0481 23.0424 26.7661ZM28.8889 28.5276L27.9604 26.251C27.8057 26.3713 27.6346 26.4714 27.44 26.5236C27.0088 26.639 27.1033 26.5887 26.9259 26.7661C26.6437 27.0481 26.2685 27.2035 25.8695 27.2035C25.6149 27.2035 25.3687 27.1308 25.1468 27.0074L26.2121 29.6192C26.3019 29.8396 26.5894 29.8934 26.753 29.7207L27.4948 28.9373L28.5731 28.9784C28.811 28.9874 28.9788 28.7478 28.8889 28.5276ZM26.4372 26.303C26.7499 25.9847 26.7857 26.0122 27.231 25.8908C27.5153 25.8132 27.7375 25.5871 27.8137 25.2977C27.9668 24.7165 27.9271 24.7867 28.3448 24.3614C28.5529 24.1496 28.6341 23.8408 28.558 23.5514C28.4051 22.9706 28.4049 23.0517 28.558 22.4702C28.6341 22.1809 28.5529 21.872 28.3448 21.6602C27.9271 21.2349 27.9668 21.3049 27.8137 20.7239C27.7375 20.4345 27.5153 20.2084 27.231 20.1308C26.6605 19.9751 26.7292 20.0158 26.3111 19.5904C26.103 19.3785 25.7995 19.2957 25.5152 19.3732C24.9448 19.5288 25.0245 19.529 24.4531 19.3732C24.1688 19.2957 23.8653 19.3783 23.6572 19.5904C23.2395 20.0156 23.3082 19.9751 22.7375 20.1308C22.4532 20.2084 22.2309 20.4345 22.1548 20.7239C22.0019 21.3049 22.0414 21.2349 21.6237 21.6602C21.4156 21.872 21.3341 22.1809 21.4105 22.4702C21.5634 23.0506 21.5636 22.9696 21.4105 23.5512C21.3343 23.8406 21.4156 24.1494 21.6237 24.3614C22.0414 24.7867 22.0017 24.7165 22.1548 25.2977C22.2309 25.5871 22.4532 25.8132 22.7375 25.8908C23.1955 26.0156 23.2296 25.996 23.5311 26.303C23.8019 26.5786 24.2236 26.628 24.549 26.4221C24.6792 26.3395 24.8301 26.2956 24.9842 26.2956C25.1384 26.2956 25.2893 26.3395 25.4194 26.4221C25.7446 26.628 26.1664 26.5786 26.4372 26.303ZM23.0534 22.9458C23.0534 21.8606 23.9179 20.9808 24.9841 20.9808C26.0504 20.9808 26.9148 21.8606 26.9148 22.9458C26.9148 24.0311 26.0504 24.9109 24.9841 24.9109C23.9179 24.9109 23.0534 24.0311 23.0534 22.9458Z" fill="#9A0000"/>
</g>
<defs>
<clipPath id="clip0_402_5411">
<rect width="10.4783" height="10.4782" fill="white" transform="translate(19.745 19.3447)"/>
</clipPath>
</defs>
</svg>
