<svg width="40" height="30" viewBox="0 0 40 30" fill="none" xmlns="http://www.w3.org/2000/svg">
<path fill-rule="evenodd" clip-rule="evenodd" d="M8.84071 6.98387C11.0535 3.11365 15.2227 0.5 20 0.5C25.9973 0.5 31.027 4.60067 32.4457 10.1675C36.7195 10.8079 40 14.457 40 18.9127C40 23.8196 36.018 27.8016 31.1111 27.8016C30.5851 27.8016 30.1587 27.3752 30.1587 26.8492C30.1587 26.3232 30.5851 25.8968 31.1111 25.8968C34.9661 25.8968 38.0952 22.7677 38.0952 18.9127C38.0952 15.2323 35.2383 12.2416 31.6009 11.9898L30.8733 11.9394L30.7323 11.2239C29.7391 6.18515 25.3138 2.40476 20 2.40476C15.7821 2.40476 12.116 4.79747 10.2891 8.30502L10.0531 8.75812L9.54513 8.81212C5.24758 9.26901 1.90476 12.9117 1.90476 17.3254C1.90476 22.1187 5.33504 25.8968 10 25.8968C10.526 25.8968 10.9524 26.3232 10.9524 26.8492C10.9524 27.3752 10.526 27.8016 10 27.8016C4.15702 27.8016 0 23.04 0 17.3254C0 12.1029 3.82744 7.7641 8.84071 6.98387Z" fill="#1A1919"/>
<path d="M24.8693 18.9554L25.7862 18.5625C25.629 18.1957 25.2683 17.9579 24.8693 17.9579C24.4703 17.9579 24.1096 18.1957 23.9525 18.5625L24.8693 18.9554ZM20.2182 27.2758C20.0012 27.7822 20.2357 28.3686 20.7421 28.5856C21.2485 28.8026 21.8349 28.568 22.0519 28.0617L20.2182 27.2758ZM27.6867 28.0617C27.9037 28.568 28.4901 28.8026 28.9965 28.5856C29.5029 28.3686 29.7374 27.7822 29.5204 27.2758L27.6867 28.0617ZM27.2457 24.5003L28.1625 24.1073L27.2457 24.5003ZM23.9525 18.5625L21.5761 24.1073L23.4098 24.8932L25.7862 19.3484L23.9525 18.5625ZM21.5761 24.1073L20.2182 27.2758L22.0519 28.0617L23.4098 24.8932L21.5761 24.1073ZM23.9525 19.3484L26.3288 24.8932L28.1625 24.1073L25.7862 18.5625L23.9525 19.3484ZM26.3288 24.8932L27.6867 28.0617L29.5204 27.2758L28.1625 24.1073L26.3288 24.8932ZM22.493 25.4978H27.2457V23.5028H22.493V25.4978Z" fill="#F48220"/>
<path d="M28.6036 23.9344C31.7155 22.0673 32.3378 12.7317 21.135 12.7317M21.135 12.7317L23.6246 9.61975M21.135 12.7317L23.6246 15.2212" stroke="#9A0000" stroke-width="1.995"/>
<path d="M10.6464 13.354C7.53454 15.2212 6.91216 24.5568 18.115 24.5568M18.115 24.5568L15.6254 27.6687M18.115 24.5568L15.6254 22.0673" stroke="#9A0000" stroke-width="1.995"/>
<path d="M11.177 10.2421H14.9113M18.6455 10.2421H14.9113M14.9113 8.375V10.2421" stroke="#F48220" stroke-width="1.995" stroke-linecap="round"/>
<path d="M17.4008 11C17.4008 12.8671 16.5294 16.8504 13.0441 17.8462M12.7111 12.8671C13.9559 14.1119 16.3209 17.3483 18.3125 17.8462" stroke="#F48220" stroke-width="1.995" stroke-linecap="round"/>
</svg>
