<svg width="40" height="30" viewBox="0 0 40 30" fill="none" xmlns="http://www.w3.org/2000/svg">
<path fill-rule="evenodd" clip-rule="evenodd" d="M8.84071 7.17436C11.0535 3.30414 15.2227 0.690491 20 0.690491C25.9973 0.690491 31.027 4.79116 32.4457 10.358C36.7195 10.9984 40 14.6475 40 19.1032C40 24.0101 36.018 27.9921 31.1111 27.9921C30.5851 27.9921 30.1587 27.5657 30.1587 27.0397C30.1587 26.5137 30.5851 26.0873 31.1111 26.0873C34.9661 26.0873 38.0952 22.9582 38.0952 19.1032C38.0952 15.4228 35.2383 12.4321 31.6009 12.1803L30.8733 12.1299L30.7323 11.4143C29.7391 6.37564 25.3138 2.59525 20 2.59525C15.7821 2.59525 12.116 4.98796 10.2891 8.49551L10.0531 8.94861L9.54513 9.00261C5.24758 9.4595 1.90476 13.1022 1.90476 17.5159C1.90476 22.2439 5.74821 26.0873 10.4762 26.0873C11.0022 26.0873 11.4286 26.5137 11.4286 27.0397C11.4286 27.5657 11.0022 27.9921 10.4762 27.9921C4.69624 27.9921 0 23.2958 0 17.5159C0 12.2934 3.82744 7.95459 8.84071 7.17436Z" fill="#1A1919"/>
<path d="M12.381 18.7857V23.9833L19.9916 28.3095L27.6191 23.9833V18.7857" stroke="#9A0000" stroke-width="2" stroke-linejoin="round"/>
<path d="M19.9863 22.5952L7.61902 16.5411L19.9863 10.2143L32.3809 16.5411L19.9863 22.5952Z" stroke="#F48220" stroke-width="2" stroke-linejoin="round"/>
<path d="M31.4286 16.881V22.5953" stroke="#F48220" stroke-width="2" stroke-linecap="round"/>
</svg>
