<svg width="40" height="30" viewBox="0 0 40 30" fill="none" xmlns="http://www.w3.org/2000/svg">
<path fill-rule="evenodd" clip-rule="evenodd" d="M8.84071 7.01531C11.0535 3.14509 15.2227 0.531433 20 0.531433C25.9973 0.531433 31.027 4.6321 32.4457 10.199C36.7195 10.8393 40 14.4884 40 18.9441C40 23.8511 36.018 27.833 31.1111 27.833C30.5851 27.833 30.1587 27.4066 30.1587 26.8806C30.1587 26.3547 30.5851 25.9283 31.1111 25.9283C34.9661 25.9283 38.0952 22.7991 38.0952 18.9441C38.0952 15.2638 35.2383 12.273 31.6009 12.0212L30.8733 11.9709L30.7323 11.2553C29.7391 6.21658 25.3138 2.4362 20 2.4362C15.7821 2.4362 12.116 4.8289 10.2891 8.33645L10.0531 8.78955L9.54513 8.84356C5.24758 9.30044 1.90476 12.9431 1.90476 17.3568C1.90476 22.1501 5.33504 25.9283 10 25.9283C10.526 25.9283 10.9524 26.3547 10.9524 26.8806C10.9524 27.4066 10.526 27.833 10 27.833C4.15702 27.833 0 23.0715 0 17.3568C0 12.1343 3.82744 7.79553 8.84071 7.01531Z" fill="#1A1919"/>
<path d="M25.4762 24.7571V19.8399C25.4085 19.6602 25.2895 19.5112 25.1414 19.4204L22.8435 18.012C22.7929 17.981 22.7315 17.987 22.686 18.0277C22.036 18.6064 21.2719 18.9123 20.4762 18.9123C19.6804 18.9123 18.9163 18.6064 18.2664 18.0277C18.2207 17.987 18.1593 17.981 18.1087 18.012L15.811 19.4204C15.6628 19.5112 15.544 19.6602 15.4762 19.8399V25.1983" stroke="#9A0000" stroke-width="1.90909"/>
<path d="M23.1277 13.659C23.1277 15.1234 21.9406 16.3106 20.4762 16.3106C19.0118 16.3106 17.8247 15.1234 17.8247 13.659C17.8247 12.1946 19.0118 11.0075 20.4762 11.0075C21.9406 11.0075 23.1277 12.1946 23.1277 13.659Z" stroke="#9A0000" stroke-width="1.90909"/>
<path d="M16.388 25.5766C18.3996 27.0868 20.4995 27.9924 20.4995 27.9924C20.4995 27.9924 28.2035 24.6565 28.2035 20.1117V11.0484L20.5239 7.99237L18.5839 8.75637M22.3685 8.75637L20.4284 7.99237L12.7489 11.0484V20.1117C12.7489 24.6565 20.4529 27.9924 20.4529 27.9924C20.4529 27.9924 22.5528 27.0868 24.5644 25.5766" stroke="#F48220" stroke-width="1.90909" stroke-linecap="round" stroke-linejoin="round"/>
</svg>
